# xmcd
#
# Track frame offsets: 
#        150
#        30510
#        51255
#        77058
#        93003
#        119113
#        138123
#        155348
#        176028
#        199923
#
# Disc length: 3127 seconds
#
# Revision: 14
# Processed by: cddbd v1.5.2PL0 Copyright (c) Steve Scherf et al.
# Submitted via: ExactAudioCopyFreeDBPlugin 1.0
#
DISCID=7f0c350a
DTITLE=Various Artist - Skynyrd Frynds
DYEAR=1994
DGENRE=Southern Rock
TTITLE0=Alabama - Sweet Home Alabama
TTITLE1=Travis Tritt - Don't Ask Me No Questions
TTITLE2=Confederate Railroad - Simple Man
TTITLE3=Sammy Kershaw - I Know A little
TTITLE4=Hank Williams Jr. - Tuesday's Gone
TTITLE5=Mavericks, The - Call Me The breeze
TTITLE6=Steve Earle - What's Your Name
TTITLE7=Charlie Daniels - One More Time
TTITLE8=Terry McBride and The Ride - Saturday Night Special
TTITLE9=Wynonna - Free Bird
EXTD=
EXTT0=
EXTT1=
EXTT2=
EXTT3=
EXTT4=
EXTT5=
EXTT6=
EXTT7=
EXTT8=
EXTT9=
PLAYORDER=
